<?xml version="1.0" encoding="UTF-8"?>
<svg id="Calque_1" data-name="Calque 1" xmlns="http://www.w3.org/2000/svg" viewBox="0 0 2000 2000">
  <path d="M952.35,1011.71c15.94,94.86-16.95,165.22-93.26,226.17-70.09,55.98-66.02,104.38-5.31,171.02,118.24,129.79,248.84,108.24,323.97-53.1,18.64-40.03,10.91-78.27-22.49-100.81-102.59-69.27-119.03-167.87-106.69-279.56,2.58-23.37-5.13-48.95,1.55-70.53,9.1-29.42,21.12-69.47,43.6-80.03,23.29-10.93,67.98-1.66,90.28,15.61,58.93,45.65,111.13,100.06,165.41,151.62,67.16,63.79,134.94,127.01,200.25,192.67,88.94,89.4,93.48,187.9,6.2,276.29-139.83,141.61-282.95,280.06-427.46,416.92-75.64,71.64-174.69,75.26-251.35,4.12-150.22-139.39-297.61-282.09-440.92-428.55-78.96-80.7-73.97-176.58,6.45-257.88,115.04-116.3,233.55-229.17,350.86-343.21,29.41-28.59,62.23-51.5,105.61-32.68,44.78,19.43,53.64,59.37,53.35,103.21-.2,29.57-.04,59.15-.04,88.73Z" style="fill: #0f23e8; stroke-width: 0px;"/>
  <path d="M376.57,659.29c10.81-21.06,23.04-67.92,52.38-98.17,145.53-150.06,293.79-297.6,444.85-442.1,68.23-65.26,162.84-71.88,232-8.28,163.87,150.72,323.42,306.48,478.59,466.15,62.27,64.08,45.92,168.89-19.88,229.15-69.1,63.28-164.07,62.43-233.23-3.91-78.3-75.1-155.4-151.45-232.87-227.41-83.9-82.27-113.32-82.35-195.71-.99-81.4,80.38-161.67,161.99-245.2,240.11-53.78,50.3-118.82,50.51-182.25,20.2-61.9-29.58-94.08-81.77-98.68-174.75Z" style="fill: #0f23e8; stroke-width: 0px;"/>
</svg>