<?xml version="1.0" encoding="UTF-8"?>
<svg id="Calque_1" data-name="Calque 1" xmlns="http://www.w3.org/2000/svg" viewBox="0 0 2553 747">
  <g>
    <path d="M228.23,362.93c3.31,19.72-3.52,34.35-19.39,47.02-14.57,11.64-13.73,21.7-1.1,35.56,24.58,26.99,51.74,22.5,67.36-11.04,3.88-8.32,2.27-16.27-4.68-20.96-21.33-14.4-24.75-34.9-22.18-58.12.54-4.86-1.07-10.18.32-14.66,1.89-6.12,4.39-14.44,9.06-16.64,4.84-2.27,14.13-.34,18.77,3.25,12.25,9.49,23.11,20.8,34.39,31.52,13.96,13.26,28.06,26.41,41.63,40.06,18.49,18.59,19.44,39.07,1.29,57.44-29.07,29.44-58.83,58.23-88.87,86.68-15.73,14.89-36.32,15.65-52.26.86-31.23-28.98-61.88-58.65-91.67-89.1-16.42-16.78-15.38-36.71,1.34-53.62,23.92-24.18,48.56-47.65,72.95-71.36,6.11-5.94,12.94-10.71,21.96-6.79,9.31,4.04,11.15,12.34,11.09,21.46-.04,6.15,0,12.3,0,18.45Z" style="fill: #0f23e8; stroke-width: 0px;"/>
    <path d="M108.52,289.66c2.25-4.38,4.79-14.12,10.89-20.41,30.26-31.2,61.08-61.87,92.49-91.92,14.18-13.57,33.86-14.95,48.23-1.72,34.07,31.34,67.24,63.72,99.5,96.92,12.95,13.32,9.55,35.11-4.13,47.64-14.37,13.16-34.11,12.98-48.49-.81-16.28-15.61-32.31-31.49-48.42-47.28-17.44-17.1-23.56-17.12-40.69-.21-16.92,16.71-33.61,33.68-50.98,49.92-11.18,10.46-24.7,10.5-37.89,4.2-12.87-6.15-19.56-17-20.52-36.33Z" style="fill: #0f23e8; stroke-width: 0px;"/>
  </g>
  <text transform="translate(447.22 513.6)" style="fill: #0f23e8; font-family: SpaceGrotesk-Bold, &apos;Space Grotesk&apos;; font-size: 370px; font-variation-settings: &apos;wght&apos; 700; font-weight: 700;"><tspan x="0" y="0">PROPULSER</tspan></text>
</svg>